<svg xmlns="http://www.w3.org/2000/svg" version="1.1" viewBox="-5.0 -10.0 110.0 135.0">
 <path fill="#003580" d="m50 20c-7.957 0-15.586 3.1602-21.215 8.7852-5.625 5.6289-8.7852 13.258-8.7852 21.215s3.1602 15.586 8.7852 21.215c5.6289 5.625 13.258 8.7852 21.215 8.7852s15.586-3.1602 21.215-8.7852c5.625-5.6289 8.7852-13.258 8.7852-21.215s-3.1602-15.586-8.7852-21.215c-5.6289-5.625-13.258-8.7852-21.215-8.7852zm0 18.762c4.5586-0.011719 8.6719 2.7305 10.418 6.9414 1.75 4.207 0.78516 9.0547-2.4375 12.277-3.2227 3.2227-8.0703 4.1875-12.277 2.4375-4.2109-1.7461-6.9531-5.8594-6.9414-10.418 0.007812-6.2031 5.0352-11.23 11.238-11.238zm12.879 34.102v-0.003906c-7.9805 4.5547-17.777 4.5547-25.758 0-1.0977-0.58594-2.1484-1.2539-3.1406-2 3.9062-4.8281 9.7852-7.6367 16-7.6367 6.2109 0 12.094 2.8086 16 7.6367-0.98047 0.74609-2.0195 1.4141-3.1016 2z"/>
</svg>