<?xml version="1.0" encoding="UTF-8"?>
<svg width="1200pt" height="1200pt" version="1.1" viewBox="0 0 1200 1200" xmlns="http://www.w3.org/2000/svg">
 <path d="m1125 439.65v-114.64c0-13.812-11.184-25.008-24.996-25.008l-50.004-0.003906v-75c0-13.812-11.184-24.996-24.996-24.996h-50.004v-75c0-13.809-11.184-24.992-24.996-24.992h-225c-6.6484 0-12.996 2.6406-17.688 7.3203l-67.668 67.68h-389.65c-13.824 0-24.996 11.184-24.996 24.996v75h-50.004c-13.824 0-24.996 11.184-24.996 24.996v75l-50.004-0.003906c-13.824 0-24.996 11.195-24.996 25.008v45.742l-75 68.223v586.03h1200v-585.35zm-850-214.66h375c6.6367 0 12.984-2.6406 17.676-7.3203l67.68-67.68h189.65v50.004h-125c-6.6484 0-12.996 2.6406-17.688 7.3203l-67.68 67.68h-439.63zm-75 100.01h525c6.6367 0 12.984-2.6406 17.676-7.3203l67.68-67.68h189.65v49.992l-125-0.003906c-6.6484 0-12.996 2.6406-17.688 7.3203l-67.68 67.68h-589.63zm-75 99.992h675c6.6367 0 12.984-2.6406 17.676-7.3203l67.68-67.68h189.65v125.01h-950zm1025 625h-1100v-499.99h1100v499.99z"/>
 <path d="m800 775h-375v-175.01h375zm-325.01-50.008h275v-75h-275z"/>
 <path d="m675 875c0-27.637-22.355-50.004-50.004-50.004-27.648 0-50.004 22.367-50.004 50.004 0 16.848 8.3516 31.645 21.07 40.68l-21.059 84.328h99.996l-21.07-84.324c12.73-9.0391 21.07-23.832 21.07-40.684z"/>
</svg>
