<svg xmlns:dc="http://purl.org/dc/elements/1.1/" xmlns:cc="http://creativecommons.org/ns#" xmlns:rdf="http://www.w3.org/1999/02/22-rdf-syntax-ns#" xmlns:svg="http://www.w3.org/2000/svg" xmlns="http://www.w3.org/2000/svg" xmlns:sodipodi="http://sodipodi.sourceforge.net/DTD/sodipodi-0.dtd" xmlns:inkscape="http://www.inkscape.org/namespaces/inkscape" version="1.1" x="0px" y="0px" viewBox="0 0 100 125"><g transform="translate(0,-952.36218)"><path style="color:#000000;enable-background:accumulate;" d="m 42,960.36215 -1.9062,10.5 c -4.4057,1.38598 -8.3885,3.68484 -11.7813,6.65627 L 18.3438,973.67465 10,987.33092 l 8,7.0937 c -0.6276,2.543 -0.9688,5.2006 -0.9688,7.93748 0,2.7369 0.3412,5.3946 0.9688,7.9376 l -8,7.0937 8.3438,13.6563 9.9687,-3.8438 c 3.3928,2.9713 7.3757,5.2703 11.7813,6.6563 l 1.9062,10.5 16,0 1.9062,-10.5 c 4.4057,-1.386 8.3884,-3.685 11.7813,-6.6563 l 9.9687,3.8438 8.3438,-13.6563 -7.9688,-7.125 c 0.6217,-2.5318 0.9376,-5.1825 0.9376,-7.9063 0,-2.72389 -0.3159,-5.37429 -0.9376,-7.90619 l 7.9688,-7.125 -8.3438,-13.65627 -9.9687,3.84377 c -3.3929,-2.97143 -7.3756,-5.27029 -11.7813,-6.65627 l -1.9062,-10.5 -16,0 z m 8,23.99997 c 9.9412,0 18,8.0588 18,17.99998 0,9.9412 -8.0588,18.0001 -18,18.0001 -9.9411,0 -18,-8.0589 -18,-18.0001 0,-9.94118 8.0589,-17.99998 18,-17.99998 z" fill="#000000" stroke="none" marker="none" visibility="visible" display="inline" overflow="visible"/></g></svg>