
<svg xmlns="http://www.w3.org/2000/svg" viewBox="0 0 1080 1080">
                <g>
                    <path class="MachineTypeIcon" d="M707.81733,577.68213a125.41854,125.41854,0,0,0,1.85034-33.8731c-.82071-11.09686-3.56192-21.81335-7.5788-33.18171,5.16162,2.91692,8.7781,6.30455,12.71644,9.22579,3.88035,2.87822,7.6078,5.96552,11.326,8.63263,1.52084-.47532,1.39-1.43372,1.41178-2.25157.42272-15.79376.78408-31.58932,1.27485-47.38091a8.14449,8.14449,0,0,0-3.18879-7.24406c-2.17418-1.71539-4.208-3.60866-6.30369-5.42354-2.752.07317-5.51732-.00111-8.25349.24663-8.98664.81359-17.96119,1.75968-26.94369,2.62062-2.93085.28094-5.87174.457-8.75082.67666-3.20819-2.62672-6.21643-5.22544-9.3705-7.633-2.97956-2.27437-6.42859-3.896-9.35728-6.19265.22787-.41474.28931-.65422.3744-.663,3.79461-.39112,7.587-.81544,11.38867-1.12512q17.903-1.4583,35.81229-2.83943c6.74873-.5219,13.5217-.80545,20.24532-1.54511a8.13656,8.13656,0,0,1,7.69193,3.141c2.7405,3.13127,5.81463,5.968,8.66255,9.00887a12.00871,12.00871,0,0,0,5.16226,3.34524q27.7058,9.00564,55.39982,18.0472c.80252.26116,1.64918.38657,2.63315.61125,1.05418-1.26127,2.08425-2.41116,3.02389-3.63072a223.72908,223.72908,0,0,1,33.01016-34.61162c1.95533-1.64944,3.39974-3.37087,3.65667-5.97a8.15215,8.15215,0,0,1,.55424-2.00431c2.29495-6.12966,6.47527-10.35266,12.97617-11.56252,6.47489-1.20506,12.07908.98944,16.27506,6.03344,1.847,2.22015,3.03539,4.9881,4.97929,8.2803.9114.363,2.66622,1.04689,4.40959,1.75857,17.01754,6.94719,27.61107,19.33,31.45249,37.35024.61326,2.87714.82453,5.83857,1.25946,8.75543,5.27858,35.40765,22.81716,63.18206,52.0556,83.70117,3.40089,2.38671,6.66727,4.9728,9.91947,7.56258,9.36968,7.4612,18.66946,15.0103,28.05783,22.44773a117.02856,117.02856,0,0,1,15.074,13.57289,89.16456,89.16456,0,0,1,11.7728,16.49949,12.00786,12.00786,0,0,0,5.08435,4.9789c7.32422,3.96588,14.58733,8.04484,21.86493,12.09638,1.49923.83477,2.9596,1.73911,4.32425,2.54444.03918,1.29056-.79108,1.16667-1.40237,1.23968a196.88225,196.88225,0,0,1-42.60973.2666,214.85943,214.85943,0,0,1-32.18843-6.00491,54.91258,54.91258,0,0,0-10.81313-1.40542q-23.40463-1.15227-46.82262-2.02689a114.849,114.849,0,0,0-13.53608.06067c-8.62063.69034-16.96189-.77129-25.25329-2.71741-39.75088-9.33012-73.85719-28.60788-102.12845-58.12341a10.83718,10.83718,0,0,1-1.06887-1.13762,5.39916,5.39916,0,0,0-5.4838-2.19872c-.68678.07994-1.38748.0407-2.08183.05559-15.44849.33121-30.89977.56906-46.34381,1.04508a79.7416,79.7416,0,0,1-15.52582-1.21088C715.11675,578.96869,711.72928,578.35982,707.81733,577.68213Zm30.61778-41.85843c6.04072,1.18652,11.61139,2.445,17.23968,3.3405,5.75918.91636,11.39955,2.70349,17.52892,2.80887a236.413,236.413,0,0,1,24.45058-48.62324c-.955-1.74429-2.42983-1.78541-3.72612-2.17258-16.10239-4.80971-32.21762-9.57665-48.29724-14.46134-4.18414-1.27111-5.98647-1.73024-6.09808,4.56076-.30151,16.99557-.89557,33.98589-1.35162,50.97885C738.15408,533.26715,738.31975,534.284,738.43511,535.8237Z"></path>
                    <path class="MachineTypeIcon" d="M506.47553,543.54746c-.25951-54.82033,44.85339-99.086,99.07515-99.02329,53.868.0623,99.00357,44.0489,98.8662,99.28677-.13666,54.94047-45.17019,98.96726-99.39081,98.75129C550.79229,642.34632,506.2055,597.984,506.47553,543.54746Z"></path>
                    <path class="MachineTypeIcon" d="M290.18327,578.74655c6.50605-19.65076,7.48206-38.75579.59154-57.80145-6.88588-19.03282-19.7844-33.07624-37.86916-43.6814a34.27708,34.27708,0,0,1,7.43512-.39656c2.25574-.04986,4.51346-.01119,6.77031-.01119q3.64567,0,7.29138.00006c2.25685.00013,4.51373-.00525,6.77055.00254s4.51344.0347,6.77023.04242,4.5137.00213,6.77055.0022q3.64569.00014,7.29137,0c2.25685,0,4.51373-.00461,6.77058.00146,2.25679.00608,4.51354.02732,6.77033.0338,2.25685.00646,4.5137.00321,6.77055.00363s4.51373.00009,6.77058.00009q3.64571.00006,7.29137.00093c2.25682.00372,4.51361.01647,6.77043.0226s4.51366.01063,6.77048.01279,4.51373.00051,6.77058.00051q3.6457,0,7.29138.00016c2.25685.00073,4.51436.03777,6.77036-.00538,2.2315-.04264,4.49439.34749,6.98232-.43646a24.74248,24.74248,0,0,0,.485-3.4035c.05425-5.5548.00849-11.11056.04153-16.66569.01008-1.6966.15781-3.39237.2244-4.72513a5.5778,5.5778,0,0,1,.71387-.69294,1.08926,1.08926,0,0,1,.50181-.11651q31.2428-.09139,62.48559-.16729a24.82542,24.82542,0,0,1,2.59674.13648,6.22769,6.22769,0,0,1,1.27645.50432c1.48975,7.07966-.55094,14.35561.04506,21.83717a8.693,8.693,0,0,0,2.3171.66474q19.79008.05738,39.58041.00223a8.878,8.878,0,0,0,1.773-.43752c1.016-4.48505-.19015-9.2172.83913-13.9616a112.91485,112.91485,0,0,1,15.70824-.09943c1.21731,3.984.18113,7.86994,1.01058,11.8985a23.17556,23.17556,0,0,0,3.36439.50677c6.07569.05262,12.15209.02028,18.22819.0352,1.15854.00286,2.31689.08623,3.65747.13972-.33623,2.07385-1.78321,2.8841-2.79255,3.9508a97.604,97.604,0,0,0-19.13846,28.94654,95.66878,95.66878,0,0,0-7.71235,40.59156c.13756,5.01452.58128,10.02065.90759,15.39971-1.20576.41484-2.6129.89893-4.291,1.4762-.20434,1.77962-.41627,3.62545-.6671,5.8098-1.56715.09228-3.08739.24319-4.60868.25426-1.534.01113-3.069-.11651-4.89048-.19588-.25432-2.18785-.48848-4.20233-.74983-6.45085a17.152,17.152,0,0,0-2.94474-.52149q-12.49915-.06582-24.99869-.00306a23.73475,23.73475,0,0,0-4.62448.57117q-39.47565,8.18391-78.94577,16.39454a31.03287,31.03287,0,0,1-6.17214.72462q-38.54.07251-77.08023.02347C292.84866,578.96386,291.82307,578.84678,290.18327,578.74655Z"></path>
                    <path class="MachineTypeIcon" d="M218.12551,623.3038c-42.10319-.38514-73.92025-33.88906-74.00249-73.84307a73.68853,73.68853,0,0,1,74.16485-74.10989c43.64906.17511,73.79394,36.2242,73.76507,74.01208C292.02458,586.51728,262.53677,622.77283,218.12551,623.3038Z"></path>
                    <path class="MachineTypeIcon" d="M176.78689,483.27277c-2.12,1.5634-3.451,2.56641-4.80375,3.53924-16.26714,11.69865-27.20467,27.08395-31.84748,46.66326-3.5691,15.05135-2.57924,29.96162,2.2018,44.64434.58218,1.788,1.13191,3.58647,1.792,5.68254a25.38976,25.38976,0,0,1-2.74871.32543q-40.35043.02385-80.70086.03491a17.14313,17.14313,0,0,1-6.07948-1.12324C43.70764,579.0099,32.789,575.0507,21.884,571.05436a23.21815,23.21815,0,0,1-3.34854-1.40415c-2.02778-1.13119-3.036-3.4344-1.70324-5.28881,2.36286-3.28769,2.0377-6.861,2.03879-10.47168q.00916-30.19775.02256-60.39549c.00292-1.87225-.38621-3.8129.65027-5.9251,5.97643-1.05983,12.14593-1.93267,18.21107-3.27652,11.84471-2.62441,23.83348-1.74869,35.776-1.75912,21.34476-.01866,42.68965.20078,64.03459.30021,11.4538.05336,22.90786.05568,34.36169.10592C173.22709,482.94531,174.52624,483.11235,176.78689,483.27277Z"></path>
                </g>
            </svg>

